# xmcd
#
# Track frame offsets:
#	150
#	12810
#	24766
#	40801
#	60778
#	74707
#	93315
#	111574
#	131357
#	148178
#
# Disc length: 2317 seconds
#
# Revision: 4
# Processed by: cddbd v1.5.2PL0 Copyright (c) Steve Scherf et al.
# Submitted via: EasyCDDAExtractor 12.0.4.1
#
DISCID=81090b0a
DTITLE=Steve Earle - Exit O (With The Dukes)
DYEAR=1987
DGENRE=Country
TTITLE0=Nowhere Road
TTITLE1=Sweet Little '66
TTITLE2=No-29
TTITLE3=Angry Young Man
TTITLE4=San Antonio Girl
TTITLE5=The Rain Came Down
TTITLE6=I Ain't Ever Satisfied
TTITLE7=The Week Of Living Dangerously
TTITLE8=I Love You Too Much
TTITLE9=It's All Up To You
EXTD=
EXTT0=
EXTT1=
EXTT2=
EXTT3=
EXTT4=
EXTT5=
EXTT6=
EXTT7=
EXTT8=
EXTT9=
PLAYORDER=
